<svg width="672" height="601" viewBox="0 0 672 601" fill="none" xmlns="http://www.w3.org/2000/svg">
<path d="M343.762 295.183C405.142 295.183 466.522 295.183 529.762 295.183C520.252 306.273 510.442 316.813 499.602 326.603C497.312 328.683 495.112 330.793 492.952 332.993C489.392 336.603 485.602 339.893 481.762 343.183C480.682 344.113 479.602 345.043 478.532 345.973C472.322 351.333 466.072 356.633 459.712 361.793C457.522 363.563 455.352 365.343 453.192 367.133C442.992 375.543 432.482 383.453 421.762 391.183C421.042 391.703 420.322 392.223 419.582 392.753C398.422 408.033 376.242 421.923 353.762 435.183C353.142 435.563 352.522 435.943 351.882 436.333C347.092 439.183 347.092 439.183 343.762 439.183C343.762 391.663 343.762 344.143 343.762 295.183Z" fill="black"/>
<path d="M228.762 295.183C261.432 295.183 294.102 295.183 327.762 295.183C327.762 332.803 327.762 370.423 327.762 409.183C311.152 409.183 296.002 404.563 281.762 396.183C281.162 395.853 280.572 395.513 279.952 395.173C257.142 382.333 239.692 358.903 232.602 333.783C231.602 329.493 230.752 325.213 230.012 320.873C229.882 320.153 229.752 319.423 229.622 318.683C228.392 310.693 228.762 303.543 228.762 295.183Z" fill="black"/>
<path d="M366.648 176.155C368.188 176.665 368.188 176.665 369.758 177.185C371.508 177.675 371.508 177.675 373.278 178.175C387.828 182.585 400.398 189.005 411.758 199.185C412.988 200.165 414.218 201.145 415.448 202.115C416.208 202.805 416.978 203.485 417.758 204.185C418.816 205.5 418.316 205 418.816 205.5C419.672 206.357 419.816 206.5 420.758 207.185C422.418 209.005 423.908 210.795 425.388 212.745C425.818 213.315 426.258 213.895 426.708 214.485C440.758 233.455 448.758 254.535 448.758 278.185C414.108 278.185 379.458 278.185 343.758 278.185C343.758 246.835 343.758 215.485 343.758 183.185C359.428 174.235 359.428 174.235 366.648 176.155Z" fill="black"/>
<path d="M327.762 468.183C327.762 493.263 327.762 518.343 327.762 544.183C324.462 545.503 321.162 546.823 317.762 548.183C307.462 554.993 301.552 562.553 299.012 574.803C298.932 575.593 298.842 576.373 298.762 577.183C292.142 576.653 285.782 575.733 279.322 574.183C278.442 573.973 277.562 573.763 276.652 573.543C256.812 568.593 237.302 561.663 219.012 552.493C218.162 552.073 217.312 551.643 216.432 551.203C205.372 545.563 194.322 539.153 184.762 531.183C184.762 530.523 184.762 529.863 184.762 529.183C186.112 528.733 186.112 528.733 187.502 528.273C232.862 513.133 277.492 495.233 319.242 471.733C320.072 471.273 320.912 470.803 321.772 470.313C322.862 469.693 322.862 469.693 323.972 469.063C325.762 468.183 325.762 468.183 327.762 468.183Z" fill="black"/>
<path d="M327.762 197.183C327.762 223.583 327.762 249.983 327.762 277.183C301.032 277.183 274.302 277.183 246.762 277.183C250.452 271.653 253.702 266.823 257.952 261.873C258.412 261.323 258.882 260.783 259.352 260.223C263.572 255.323 267.942 250.563 272.352 245.843C274.602 243.363 276.682 240.803 278.762 238.183C281.382 235.373 281.382 235.373 283.762 233.183C284.816 232 284.316 232.5 285.316 231.5C286.316 230.5 285.816 231 286.762 230.183C288.122 228.813 288.122 228.813 289.952 227.303C293.942 223.923 297.762 220.393 301.572 216.803C307.432 211.323 313.462 206.173 319.762 201.183C321.062 200.073 321.062 200.073 322.382 198.933C324.762 197.183 324.762 197.183 327.762 197.183Z" fill="black"/>
<path d="M345.762 3.18254C351.282 6.86254 353.862 10.8125 355.762 17.1825C356.932 23.4425 355.052 28.8525 351.762 34.1825C347.842 38.7325 342.502 41.5725 336.602 42.5425C330.462 42.9325 326.432 41.0925 321.762 37.1825C316.962 32.4225 314.472 28.2225 314.382 21.4325C314.512 15.0025 315.792 10.4425 320.152 5.65254C327.772 -1.26746 337.012 -1.51746 345.762 3.18254Z" fill="black"/>
<path d="M345.199 561.745C350.929 567.195 354.849 571.155 355.079 579.365C354.999 585.595 353.579 590.075 349.369 594.715C344.079 599.505 338.319 600.805 331.359 600.615C325.589 599.655 321.479 596.545 318.089 591.875C315.059 586.415 313.569 581.385 314.759 575.185C316.689 568.995 320.409 564.765 325.759 561.185C331.939 559.125 339.269 559.055 345.199 561.745Z" fill="black"/>
<path fill-rule="evenodd" clip-rule="evenodd" d="M298.021 24.9636L297.946 24.5C273.606 24.01 246.626 35.19 224.996 45.51C224.58 45.7149 224.168 45.9125 223.757 46.1094L223.756 46.1099C223.486 46.2396 223.216 46.369 222.946 46.5C202.806 56.03 183.596 67.24 166.076 81.03C165.016 81.87 163.976 82.69 162.946 83.5C143.896 97.94 127.006 116.34 113.156 135.8C112.746 136.38 112.346 136.94 111.946 137.5C98.6958 156.07 88.5258 176.01 79.9158 197.11C79.5892 197.912 79.2724 198.694 78.9557 199.476L78.9522 199.484L78.9489 199.492L78.9458 199.5C70.1458 220.95 61.3258 246.69 60.8958 270.07C60.9008 270.522 60.9033 270.967 60.9057 271.41C60.9083 271.857 60.9108 272.302 60.9158 272.75C60.9258 274.11 60.9258 274.11 60.9258 275.448V275.45C60.9307 275.797 60.9332 276.137 60.9357 276.475C60.9382 276.818 60.9408 277.158 60.9458 277.5L60.8861 277.5H60.8842H60.8823C54.6535 277.48 48.4346 277.46 42.2058 277.45C40.9308 277.45 39.6583 277.448 38.3858 277.445C37.1133 277.443 35.8408 277.44 34.5658 277.44C30.8158 277.42 27.0558 277.41 23.2958 277.41C22.3857 277.405 21.9357 277.402 21.4858 277.401C21.0458 277.4 20.6059 277.4 19.7358 277.4C17.9758 277.39 17.9758 277.39 16.2558 277.39H13.0358C12.7817 277.389 12.5365 277.387 12.2988 277.385C9.88871 277.366 8.24865 277.353 5.94578 278.5C2.66579 281.22 1.12578 282.84 0.00578163 287C-0.0842184 292.16 0.855781 294.28 4.28578 298.12L4.28604 298.12L4.28641 298.121C5.6287 299.202 6.47869 299.888 7.44185 300.321C9.10447 301.07 11.1043 301.07 16.5558 301.07L16.8744 301.062H16.8755H16.8764C17.9028 301.035 18.9002 301.008 19.9058 300.99C23.4758 300.97 27.0458 300.94 30.6158 300.88C33.0958 300.83 35.5758 300.8 38.0558 300.77C44.7058 300.72 51.3658 300.64 58.0158 300.53C58.6654 300.52 59.305 300.51 59.9446 300.5H59.9458C60.2558 317.04 61.1958 333.09 64.3258 349.37C64.3956 349.722 64.4654 350.072 64.5348 350.421C64.6743 351.12 64.8122 351.812 64.9458 352.5C69.6758 377.05 77.6758 400.18 88.9458 422.5L91.9458 421.5C92.1758 420.8 92.4058 420.12 92.6358 419.44C92.6928 419.064 92.7531 418.694 92.8129 418.327C92.858 418.05 92.9028 417.775 92.9458 417.5H94.9458L94.7772 417.822C81.2925 443.612 62.9804 478.635 71.2658 508.56C74.5458 517.92 80.0158 524.84 88.9458 529.5C117.696 540.47 117.696 540.47 197.006 512.2C197.666 511.96 198.306 511.73 198.946 511.5C208.696 507.98 218.356 504.24 227.946 500.32C228.351 500.153 228.749 499.99 229.144 499.828L229.946 499.5C256.506 488.68 282.216 476.2 307.536 462.78C309.166 461.91 310.806 461.04 312.446 460.18C314.829 458.917 317.214 457.654 319.599 456.391L319.675 456.351C322.099 455.067 324.524 453.784 326.946 452.5V423.5C326.011 423.5 325.513 423.5 325.056 423.637C324.535 423.793 324.067 424.126 323.066 424.84L323.066 424.84C306.191 435.571 297.731 440.951 288.928 445.694C280.078 450.463 270.88 454.588 252.436 462.86C250.683 463.687 250.676 463.69 248.966 464.491L248.952 464.497L248.946 464.5C212.256 481.76 167.996 501.77 126.856 501.88C120.086 501.74 114.796 500.35 109.946 495.5C105.866 488.19 106.466 481.57 108.366 473.75C108.515 473.185 108.658 472.625 108.8 472.07L108.8 472.069L108.803 472.057C108.851 471.871 108.898 471.685 108.946 471.5L108.947 471.495C109.607 468.827 110.266 466.158 110.946 463.5C112.566 465.21 114.236 466.87 115.946 468.5C116.029 468.612 116.093 468.699 116.151 468.776C116.188 468.825 116.222 468.87 116.257 468.915C116.409 469.111 116.568 469.301 116.999 469.816L117 469.818C117.261 470.152 117.451 470.4 117.596 470.59L117.597 470.591C117.861 470.936 117.98 471.092 118.118 471.228C118.232 471.339 118.359 471.438 118.59 471.617L118.591 471.618C118.704 471.705 118.842 471.813 119.016 471.95C119.524 472.518 120.012 473.066 120.501 473.614L120.506 473.62L120.544 473.663C121.356 474.58 121.368 474.594 122.186 475.52C122.355 475.709 122.522 475.897 122.688 476.084C122.849 476.264 123.008 476.444 123.167 476.623L123.172 476.629C123.31 476.784 123.447 476.939 123.584 477.093C123.705 477.229 123.825 477.365 123.946 477.5C127.046 481.14 130.206 484.71 133.476 488.2C133.913 488.652 134.346 489.098 134.777 489.54C135.232 490.008 135.684 490.473 136.136 490.94L136.136 490.941L136.137 490.941C138.616 493.5 138.616 493.5 140.946 495.5C143.326 496.39 144.796 496.52 147.326 496.15L147.785 496.037C148.513 495.857 149.223 495.682 149.926 495.5C151.355 495.15 151.356 495.15 152.763 494.811L152.766 494.81C153.755 494.56 154.724 494.31 155.694 494.061L155.696 494.06C159.116 493.22 162.536 492.37 165.946 491.5V489.5C164.746 488.22 163.546 486.94 162.286 485.72C152.446 476.25 143.086 466.49 135.056 455.42C134.336 454.43 133.636 453.46 132.946 452.5C132.176 451.49 131.426 450.5 130.686 449.52C130.261 448.952 129.843 448.397 129.428 447.845C129.119 447.436 128.813 447.029 128.506 446.62C126.566 444.06 124.986 441.57 123.496 438.71C122.816 434.72 123.636 432.86 125.356 429.29C125.776 428.49 126.176 427.71 126.566 426.94C130.996 418.01 135.836 409.32 140.876 400.72C142.366 398.19 143.856 395.65 145.326 393.11C158.066 371.08 172.366 349.74 187.566 329.34C187.822 329.002 188.073 328.666 188.322 328.332L188.333 328.318L188.337 328.313C188.54 328.041 188.742 327.771 188.946 327.5C194.046 320.65 199.326 313.98 204.886 307.5C207.976 303.96 210.506 300.57 212.946 296.5H75.9458V279.5C94.6458 279.65 113.346 279.78 132.056 279.85C141.146 279.89 150.236 279.93 159.336 280C167.316 280.07 175.306 280.13 183.296 280.15C187.506 280.16 191.726 280.17 195.946 280.21C199.986 280.26 204.016 280.3 208.056 280.3C209.536 280.29 211.026 280.29 212.516 280.29C216.386 280.37 220.216 280.37 224.076 280.14C227.326 279.42 228.326 278.74 230.256 276.08C234.946 266.15 243.056 257.17 250.566 249.25C252.881 246.861 254.566 244.824 256.775 242.153L256.775 242.153L257.316 241.5C257.726 241.004 257.991 240.761 258.407 240.379C258.528 240.267 258.662 240.144 258.816 240C259.305 239.541 259.396 239.446 259.578 239.254L259.578 239.254C259.712 239.114 259.894 238.922 260.316 238.5C260.909 237.788 261.323 237.28 261.648 236.88C262.695 235.595 262.826 235.434 265.046 233.26C265.338 232.968 265.627 232.681 265.914 232.397L265.916 232.394C266.007 232.305 266.097 232.215 266.188 232.126C266.378 231.937 266.568 231.748 266.756 231.56C274.286 224.06 282.066 216.87 290.066 209.88C292.176 208.06 294.246 206.22 296.306 204.36C299.606 201.35 302.896 198.36 306.346 195.54L306.806 195.176C307.466 194.653 308.114 194.14 308.756 193.62C310.456 192.21 312.196 190.84 313.946 189.5C317.656 187.42 321.046 185.42 324.146 182.49C328.876 176.89 328.876 176.89 328.316 155.11C328.236 151.8 328.186 148.49 328.166 145.18C328.136 138.92 328.056 132.66 327.926 126.4C327.776 119.22 327.686 112.05 327.616 104.87C327.476 89.41 327.246 73.96 326.946 58.5C326.473 58.41 326.017 58.3199 325.562 58.2299L325.561 58.2297L325.106 58.14L325.099 58.1386C323.876 57.88 323.874 57.8796 322.676 57.63C319.476 56.98 317.046 56.18 314.326 54.38C304.836 46.85 300.326 38.16 298.246 26.37C298.171 25.89 298.096 25.4268 298.021 24.9636ZM141.066 199.525C146.076 203.055 150.186 207.345 151.816 213.405C151.896 215.735 151.906 218.065 151.816 220.405H154.816V228.405H121.816C123.589 234.616 124.211 236.792 125.599 238.223C126.348 238.995 127.32 239.551 128.816 240.405C131.432 240.773 132.712 240.953 133.946 240.79C135.127 240.634 136.266 240.165 138.496 239.245C138.996 238.775 139.486 238.315 140.006 237.835C142.816 235.405 142.816 235.405 145.566 235.465C147.816 236.405 147.816 236.405 149.816 238.405L149.816 238.405C149.726 241.865 148.886 243.315 146.686 246.025C141.566 250.255 136.666 252.005 130.086 251.745C124.736 250.925 120.506 248.495 116.946 244.465C113.046 238.845 112.586 235.085 112.816 228.405H108.816V220.405H112.816C112.779 219.868 112.74 219.331 112.7 218.792L112.7 218.784L112.699 218.782C112.654 218.16 112.609 217.535 112.566 216.905C112.586 211.355 114.476 206.935 118.246 202.855C124.876 197.015 133.166 194.885 141.066 199.525ZM131.262 205.558C135.282 206.278 136.932 207.278 139.762 210.178C141.762 213.222 141.762 214.317 141.762 218.121V218.178H121.762C122.862 211.558 124.112 206.838 131.262 205.558ZM235.623 131.908C236.378 131.903 236.758 131.9 237.138 131.897C237.523 131.893 237.908 131.888 238.683 131.878H242.013C243.133 131.878 244.253 131.878 245.413 131.868C246.202 131.868 246.992 131.867 247.783 131.866H247.784H247.791C249.372 131.863 250.955 131.861 252.533 131.868C256.183 131.868 259.823 131.848 263.463 131.818H270.383C271.195 131.813 271.605 131.81 272.015 131.807C272.236 131.805 272.457 131.802 272.74 131.799C272.993 131.796 273.296 131.793 273.693 131.788L276.773 131.808H279.483C282.233 132.258 283.113 132.968 284.763 135.178C284.948 136.428 285.04 137.053 285.04 137.678C285.04 138.303 284.948 138.928 284.763 140.178C283.113 142.398 282.223 143.108 279.483 143.568H276.773C275.753 143.578 274.743 143.588 273.693 143.598L270.383 143.578C269.553 143.583 269.133 143.585 268.713 143.587C268.41 143.588 268.108 143.588 267.652 143.588L266.983 143.588C264.603 143.588 262.233 143.588 259.853 143.578C256.94 143.562 254.022 143.572 251.107 143.581H251.101C250.374 143.584 249.648 143.586 248.923 143.588C246.613 143.588 244.313 143.588 242.013 143.578C240.913 143.588 239.813 143.598 238.683 143.598C237.673 143.588 236.663 143.578 235.623 143.568H232.923C232.203 143.438 231.493 143.308 230.763 143.178C228.463 139.728 228.413 138.238 228.763 134.178C231.041 131.9 231.954 131.902 234.688 131.908C234.901 131.909 235.126 131.909 235.363 131.909C235.448 131.909 235.534 131.908 235.623 131.908ZM258.507 109.204C258.066 109.044 257.6 108.952 256.82 108.8C252.23 108.55 249.61 108.8 247.76 113.18C247.23 116.8 247.3 118.48 249.32 121.56C252.7 123.81 254.79 123.75 258.76 123.18C259.997 122.359 260.607 121.954 261.111 121.444C261.601 120.948 261.991 120.353 262.76 119.18C263.36 115.58 263.22 113.9 261.26 110.81C259.765 109.835 259.164 109.443 258.507 109.204Z" fill="black"/>
<path fill-rule="evenodd" clip-rule="evenodd" d="M371.762 23.1826C377.912 22.8926 383.452 23.9626 389.452 25.3026C390.969 25.6419 390.972 25.6426 392.513 25.9906L392.519 25.9919L392.522 25.9926C421.152 32.5426 450.562 43.2126 474.762 60.1826C474.333 61.0406 474.088 61.5306 473.716 61.8901C473.222 62.3685 472.505 62.6159 470.832 63.1926C470.486 63.2901 470.14 63.3883 469.794 63.4867L469.793 63.4869C468.825 63.7616 467.853 64.0375 466.882 64.3026C452.172 68.6726 438.382 75.1726 424.762 82.1826C422.862 83.1326 420.962 84.0726 419.062 85.0126C416.332 86.3626 413.612 87.7326 410.892 89.1026C409.472 89.8226 408.042 90.5426 406.622 91.2526C396.082 96.5526 385.932 102.383 375.882 108.563C374.762 109.253 373.642 109.943 372.482 110.653L372.481 110.653L372.478 110.654C368.903 112.835 367.116 113.925 365.4 115.117C363.687 116.307 362.045 117.599 358.764 120.181L358.762 120.182L358.762 120.183L358.762 120.183C358.538 121.604 358.434 122.268 358.448 122.93C358.461 123.512 358.565 124.093 358.762 125.183C359.522 125.585 359.938 125.806 360.38 125.937C360.916 126.095 361.491 126.122 362.762 126.183C365.002 124.923 366.952 123.633 369.012 122.123C385.832 110.403 404.002 100.743 422.252 91.4626C424.432 90.3526 426.612 89.2226 428.772 88.0826C463.742 69.8826 501.802 56.2926 540.762 50.1826C541.702 50.0126 542.642 49.8426 543.612 49.6626C561.762 46.8926 583.012 47.4426 598.432 58.3426C608.612 66.4026 614.992 76.1426 616.762 89.1826C619.422 122.173 604.882 154.253 588.762 182.183L587.762 183.183C588.162 189.103 589.582 193.813 591.882 199.243C597.802 213.883 602.262 228.933 605.572 244.373C605.715 245.03 605.787 245.362 605.86 245.695C605.933 246.024 606.005 246.354 606.148 247L606.162 247.063C607.92 255.73 608.711 264.519 609.502 273.313L609.503 273.319C609.589 274.274 609.674 275.228 609.762 276.183C610.422 276.173 611.092 276.163 611.772 276.153C618.682 276.063 625.592 276.003 632.502 275.963C635.066 275.943 637.631 275.913 640.196 275.883L640.242 275.883C643.938 275.833 647.644 275.813 651.35 275.793L651.362 275.793L653.16 275.761C653.718 275.752 654.28 275.742 654.852 275.733C661.132 275.733 665.012 275.903 669.762 280.183C671.835 282.711 671.783 284.156 671.674 287.173C671.663 287.473 671.652 287.789 671.642 288.123C671.002 292.083 669.722 294.383 666.762 297.183C663.192 298.913 660.362 299.433 656.422 299.413H653.272C651.602 299.393 651.602 299.393 649.902 299.383C648.752 299.373 647.602 299.373 646.422 299.373C642.776 299.363 639.141 299.333 635.496 299.303L635.452 299.303C634.212 299.298 632.969 299.295 631.727 299.293L630.796 299.291L630.046 299.289C629.364 299.287 628.682 299.285 628.002 299.283C621.922 299.263 615.842 299.223 609.762 299.183V299.188L609.781 301.122L609.802 303.113C609.872 312.723 609.822 322.193 608.642 331.743C608.512 332.823 608.382 333.893 608.242 335.003C599.462 402.773 565.042 472.733 510.452 515.243C508.792 516.503 507.122 517.733 505.442 518.953C503.692 520.233 501.962 521.543 500.242 522.863C471.482 544.633 440.022 559.353 405.762 570.183C404.702 570.523 404.702 570.523 403.622 570.873C393.722 574.033 382.252 577.183 371.762 577.183C371.542 576.353 371.322 575.513 371.102 574.653C368.042 563.812 363.992 555.843 354.762 549.183L343.762 544.183V457.183L354.762 451.183C379.442 437.633 403.182 422.053 425.942 405.493C427.967 404.036 430.002 402.589 432.038 401.143L432.041 401.14L432.052 401.133C441.672 394.303 450.942 387.153 460.022 379.623C462.462 377.603 464.922 375.613 467.382 373.623C477.202 365.573 486.772 357.263 496.092 348.643C498.942 346.023 501.832 343.473 504.762 340.933C507.17 338.824 509.558 336.696 511.946 334.567L511.952 334.563C512.752 333.843 513.542 333.133 514.372 332.393C516.902 330.053 519.332 327.633 521.762 325.183C522.186 324.763 522.612 324.344 523.042 323.922L523.448 323.522C523.767 323.209 524.088 322.893 524.412 322.573C529.122 317.913 533.702 313.213 537.992 308.163C540.653 305.182 543.508 302.404 546.367 299.621L546.942 299.063C547.929 298.138 548.398 297.699 548.757 297.184C549.081 296.718 549.315 296.19 549.761 295.184L549.762 295.183H591.762L590.762 279.183L482.762 278.183C483.832 272.843 484.612 271.853 488.262 268.123C493.092 263.023 497.322 257.663 501.452 251.973C502.678 250.289 503.934 248.62 505.187 246.953C505.415 246.649 505.644 246.346 505.872 246.043C521.652 225.023 536.062 203.073 548.712 180.033C549.432 178.773 550.182 177.523 550.952 176.293C553.132 172.923 553.132 172.923 553.672 169.053C553.519 168.736 553.366 168.423 553.211 168.107C553.063 167.803 552.914 167.496 552.762 167.183L552.76 167.178L552.749 167.156C552.393 166.395 552.037 165.633 551.672 164.843C546.222 154.773 539.732 145.423 532.592 136.483C531.412 135.003 530.252 133.513 529.102 132.013C523.922 125.303 518.192 119.343 512.182 113.393C510.562 111.793 508.952 110.183 507.342 108.573C504.591 105.807 503.216 104.424 501.788 103.099C500.361 101.774 498.881 100.507 495.922 97.9727L495.922 97.9726C495.628 97.7289 495.333 97.4852 495.037 97.2401C494.615 96.8918 494.19 96.5406 493.762 96.1826V94.1826C496.822 93.1426 499.882 92.1326 502.952 91.1226C503.385 90.9713 503.821 90.8226 504.261 90.6726L504.262 90.6725L504.262 90.6723L504.262 90.6722L504.264 90.6718L504.266 90.671C504.697 90.524 505.132 90.3757 505.572 90.2226C506.412 89.9526 507.252 89.6826 508.122 89.3926L510.452 88.6226C513.232 88.0926 515.062 88.3726 517.762 89.1826C519.932 90.8926 521.852 92.5826 523.822 94.4926C524.672 95.3026 524.672 95.3026 525.532 96.1226C526.712 97.2526 527.882 98.3826 529.042 99.5126C530.652 101.073 532.272 102.613 533.892 104.153C541.292 111.273 547.612 118.983 553.762 127.183C554.622 128.323 555.482 129.463 556.342 130.593C558.492 133.453 560.632 136.313 562.762 139.183C563.001 139.484 563.239 139.786 563.478 140.089L563.49 140.103C563.825 140.529 564.163 140.957 564.512 141.393C565.162 142.324 565.474 142.77 565.623 143.266C565.762 143.724 565.762 144.223 565.762 145.183H567.762C567.828 144.589 567.899 143.995 567.972 143.389C567.998 143.169 568.025 142.947 568.052 142.723C568.91 138.45 570.47 134.712 572.135 130.723L572.202 130.563C575.032 123.473 577.182 116.843 577.762 109.183C577.8 108.718 577.839 108.253 577.88 107.785L577.881 107.766L577.882 107.762L577.882 107.758L577.882 107.755C577.936 107.125 577.991 106.49 578.042 105.843C578.332 99.6126 578.132 94.9026 574.302 89.8226C567.632 82.6826 558.982 80.1826 549.322 79.7826C547.472 79.7726 545.612 79.7826 543.762 79.8026C542.772 79.8126 541.772 79.8226 540.752 79.8326C500.011 80.6532 460.603 100.31 424.616 118.261L424.605 118.266C423.32 118.907 422.038 119.547 420.762 120.183C420.428 120.348 420.093 120.514 419.757 120.681L419.738 120.69L419.733 120.693C419.059 121.027 418.38 121.365 417.692 121.703C395.162 132.923 373.812 146.163 353.052 160.353C352.817 160.512 352.583 160.672 352.349 160.831C351.645 161.309 350.942 161.787 350.222 162.283C349.48 162.789 348.746 163.296 347.991 163.817L347.986 163.821L347.752 163.983L347.751 163.983L347.751 163.983L347.751 163.983C346.687 164.625 346.192 164.923 345.656 165.062C345.189 165.183 344.692 165.183 343.762 165.183V57.1826L353.762 53.1826C355.472 51.9026 357.152 50.5926 358.762 49.1826C359.089 49.1826 359.553 48.645 360.021 48.1035C360.495 47.5538 360.973 47 361.316 47C361.45 46.7174 361.874 46.2454 362.301 45.7695L362.302 45.7691C362.736 45.2853 363.175 44.7974 363.316 44.5C364.112 42.9593 364.261 42.7523 364.666 42.1902L364.666 42.1899C364.887 41.8838 365.183 41.4722 365.702 40.6826C369.082 35.1326 370.522 29.5226 371.762 23.1826ZM389.644 478.779C391.134 478.758 391.134 478.758 392.644 478.738C392.909 478.738 393.173 478.739 393.438 478.74C393.702 478.741 393.966 478.742 394.231 478.743L394.242 478.743C394.784 478.746 395.331 478.749 395.884 478.749C396.984 478.749 398.084 478.738 399.214 478.728C401.534 478.728 403.864 478.728 406.184 478.738C409.737 478.748 413.29 478.719 416.852 478.689L416.874 478.689C419.124 478.678 421.384 478.678 423.634 478.689L425.121 478.67L426.874 478.648C427.614 478.658 427.987 478.663 428.359 478.667C428.737 478.671 429.114 478.673 429.874 478.678H432.524C433.584 478.915 434.142 479.04 434.628 479.3C435.169 479.59 435.62 480.049 436.574 481.018C437.103 481.978 437.397 482.512 437.549 483.083C437.739 483.797 437.707 484.57 437.634 486.309L437.634 486.309L437.634 486.309C437.235 487.625 437.019 488.338 436.613 488.917C436.133 489.599 435.388 490.096 433.764 491.178C432.765 491.303 432.228 491.371 431.689 491.409C431.063 491.453 430.435 491.458 429.078 491.469H429.076H429.075H429.074C427.654 491.488 427.654 491.488 426.204 491.508C425.449 491.513 425.067 491.516 424.684 491.517C424.448 491.518 424.212 491.518 423.887 491.518L423.104 491.518C422.576 491.524 422.047 491.526 421.514 491.529C421.244 491.53 420.973 491.531 420.7 491.533C420.443 491.534 420.184 491.536 419.924 491.539C417.694 491.548 415.474 491.548 413.244 491.548C410.697 491.556 408.144 491.58 405.59 491.605C404.735 491.613 403.88 491.621 403.024 491.629C400.864 491.638 398.704 491.638 396.544 491.638L396.535 491.639C395.784 491.653 395.403 491.661 395.022 491.667C394.847 491.67 394.671 491.672 394.46 491.675C394.201 491.679 393.888 491.683 393.454 491.689C389.052 491.657 387.403 491.646 385.978 491.074C385.124 490.731 384.351 490.188 383.114 489.319C381.424 486.659 381.204 485.279 381.764 482.178C384.094 479.078 385.854 478.798 389.644 478.779ZM414.598 499.245C414.171 499.067 413.708 498.974 412.887 498.808C408.427 498.548 405.607 498.688 403.767 503.188C403.377 506.808 403.367 509.268 404.827 512.618C405.651 513.284 406.125 513.668 406.66 513.922C407.385 514.265 408.224 514.37 410.197 514.618C410.389 514.594 410.576 514.572 410.757 514.55C414.07 514.156 415.586 513.975 417.767 511.188C418.217 507.088 418.277 504.478 416.767 500.688C415.641 499.843 415.149 499.474 414.598 499.245ZM413.762 453.183C415.232 454.213 415.967 454.728 416.592 455.353C417.217 455.978 417.732 456.712 418.761 458.182L418.762 458.183C418.762 461.723 418.422 464.053 416.642 467.123C413.582 468.853 411.192 468.603 407.762 468.183C406.542 467.403 405.932 467.013 405.432 466.513C404.932 466.013 404.542 465.403 403.762 464.183C403.192 460.213 403.142 458.123 405.382 454.743C408.522 452.683 410.082 452.503 413.762 453.183L413.762 453.183ZM560.261 357.62C559.921 352.22 558.221 349.53 554.261 345.87C548.701 343.19 542.611 343.23 536.761 345.18C533.191 347.85 531.141 349.4 530.201 353.82C529.991 358.59 530.141 362.11 533.261 365.87C534.111 366.66 534.931 367.42 535.761 368.18C533.391 370.32 531.431 372.45 529.761 375.18C528.851 379.75 529.211 383.71 530.821 388.06C533.461 390.95 536.071 392.92 539.761 394.18C545.471 394.81 550.431 394.82 555.261 391.43C559.181 387.9 560.931 385.08 561.321 379.81C561.201 375.07 559.311 372.7 556.071 369.4C555.77 369.113 555.469 368.835 555.172 368.56C555.034 368.433 554.897 368.306 554.761 368.18C558.271 364.76 560.131 362.62 560.261 357.62ZM546.387 373.245L546.387 373.245C545.122 373.216 544.468 373.201 543.869 373.375C543.226 373.562 542.647 373.967 541.447 374.805C539.477 377.585 539.237 378.855 539.767 382.185C542.177 384.595 543.387 384.945 546.767 385.185C547.933 384.615 548.51 384.332 549.014 383.952C549.507 383.578 549.93 383.111 550.767 382.185L550.767 382.184C550.952 380.935 551.044 380.31 551.044 379.685C551.044 379.06 550.952 378.435 550.767 377.186L550.767 377.185C549.61 375.451 549.123 374.719 548.457 374.229C547.971 373.871 547.391 373.642 546.387 373.245ZM542.761 352.183C544.237 352.276 544.987 352.323 545.724 352.444C546.487 352.568 547.237 352.771 548.761 353.183C549.914 354.911 550.402 355.644 550.573 356.444C550.698 357.033 550.652 357.658 550.571 358.743C550.228 359.777 550.03 360.373 549.687 360.869C549.222 361.542 548.489 362.031 546.761 363.183C544.311 362.953 542.971 362.323 540.951 360.933C540.408 360.134 540.113 359.699 539.97 359.22C539.801 358.649 539.848 358.014 539.951 356.623C540.338 355.458 540.54 354.849 540.863 354.313C541.217 353.727 541.716 353.228 542.761 352.183Z" fill="black"/>
</svg>
